<?xml version="1.0" encoding="UTF-8"?> <svg xmlns="http://www.w3.org/2000/svg" width="24" height="24" viewBox="0 0 24 24" fill="none"><path fill-rule="evenodd" clip-rule="evenodd" d="M18.0001 8.25C18.0001 5.41091 16.0282 3.03239 13.3793 2.40928C13.1499 1.87456 12.6187 1.5 12.0001 1.5C11.3814 1.5 10.8502 1.87456 10.6209 2.40928C7.97195 3.03239 6.00006 5.41092 6.00006 8.25V9.89532C6.00006 11.0874 5.59434 12.2441 4.84962 13.175L3.16441 15.2815L3.00006 15.75V18.75L3.75006 19.5H8.32508C8.67253 21.2117 10.1858 22.5 12.0001 22.5C13.8143 22.5 15.3276 21.2117 15.6751 19.5H20.2501L21.0001 18.75V15.75L20.8357 15.2815L19.1505 13.175C18.4058 12.2441 18.0001 11.0874 18.0001 9.89532V8.25ZM14.122 19.5H9.87809C10.187 20.3739 11.0204 21 12.0001 21C12.9797 21 13.8132 20.3739 14.122 19.5ZM12.0001 3.75C9.51478 3.75 7.50006 5.76472 7.50006 8.25V9.89532C7.50006 11.4281 6.97842 12.9151 6.02093 14.112L4.50006 16.0131V18H19.5001V16.0131L17.9792 14.112C17.0217 12.9151 16.5001 11.428 16.5001 9.89532V8.25C16.5001 5.76472 14.4853 3.75 12.0001 3.75Z" fill="#111B24"></path></svg> 